<svg width="16" height="16" viewBox="0 0 16 16" fill="none" xmlns="http://www.w3.org/2000/svg">
<path d="M4.90015 7.53334C4.90015 6.02485 4.90015 5.2706 5.36878 4.80197C5.83741 4.33334 6.59166 4.33334 8.10015 4.33334H9.70015C11.2086 4.33334 11.9628 4.33334 12.4315 4.80197C12.9001 5.2706 12.9001 6.02485 12.9001 7.53334V10.2C12.9001 11.7085 12.9001 12.4627 12.4315 12.9313C11.9628 13.4 11.2086 13.4 9.70015 13.4H8.10015C6.59166 13.4 5.83741 13.4 5.36878 12.9313C4.90015 12.4627 4.90015 11.7085 4.90015 10.2V7.53334Z" stroke="#999999" stroke-width="1.3"/>
<path d="M4.70018 11.0667C3.81652 11.0667 3.00023 10.3503 3.00023 9.46667L3.00013 6.26667C3.00013 4.25534 2.97529 3.24968 3.60013 2.62484C4.22497 2 5.35552 2 7.36685 2H9.50018C10.3838 2 10.9002 2.33333 10.9002 3.83334" stroke="#999999" stroke-width="1.3"/>
</svg>
