<svg width="16" height="15" viewBox="0 0 16 15" fill="none" xmlns="http://www.w3.org/2000/svg">
<path d="M0.0013333 5.17898C0.0104278 4.20577 0.305453 3.25926 0.846094 2.46877C1.38673 1.67828 2.14662 1.08239 3.0219 0.762513C3.89719 0.442638 4.84518 0.414388 5.73633 0.681623C6.62748 0.948859 7.41831 1.49854 8.00077 2.25556C8.59558 1.48273 9.40725 0.926482 10.3204 0.665909C11.2335 0.405336 12.2016 0.4537 13.0871 0.804124C13.9726 1.15455 14.7303 1.7892 15.2526 2.61784C15.7748 3.44648 16.035 4.42693 15.9962 5.4198C15.9122 8.40762 13.839 10.6842 12.0565 12.1179C10.9484 13.0025 9.7521 13.7584 8.48874 14.3721C8.46207 14.3861 8.43807 14.3959 8.42207 14.4029L8.40341 14.4113L8.39808 14.4141H8.39541C8.27082 14.4705 8.1366 14.4998 8.00091 14.5C7.86522 14.5002 7.7309 14.4715 7.60613 14.4155H7.60347L7.59813 14.4113L7.57813 14.4029C7.47394 14.3554 7.37081 14.3055 7.26882 14.253C6.07356 13.6509 4.94093 12.9204 3.88906 12.0731C2.08652 10.6086 0 8.28161 0 5.23218L0.0013333 5.17898Z" fill="#242629"/>
</svg>
